<svg xmlns="http://www.w3.org/2000/svg"  viewBox="0 0 24 24" width="24px" height="24px"><path d="M12 6A6 6 0 1 0 12 18A6 6 0 1 0 12 6Z" opacity=".3"/><path d="M21 11H24V13H21zM0 11H3V13H0zM11 0H13V3H11zM11 21H13V24H11z"/><path d="M18.4 17.9H20.4V20.9H18.4z" transform="rotate(-45.001 19.423 19.424)"/><path d="M3.6 3.1H5.6V6.1H3.6z" transform="rotate(-45.001 4.575 4.575)"/><path d="M17.9 3.6H20.9V5.6H17.9z" transform="rotate(-45.009 19.424 4.575)"/><path d="M3.1 18.4H6.1V20.4H3.1z" transform="rotate(-44.992 4.574 19.423)"/><path d="M12,19c-3.9,0-7-3.1-7-7c0-3.9,3.1-7,7-7c3.9,0,7,3.1,7,7C19,15.9,15.9,19,12,19z M12,7c-2.8,0-5,2.2-5,5c0,2.8,2.2,5,5,5 c2.8,0,5-2.2,5-5C17,9.2,14.8,7,12,7z"/></svg>