<?xml version="1.0" encoding="utf-8"?>
<!-- Generator: Adobe Illustrator 22.0.1, SVG Export Plug-In . SVG Version: 6.00 Build 0)  -->
<svg version="1.1" id="Cloudy" xmlns="http://www.w3.org/2000/svg" xmlns:xlink="http://www.w3.org/1999/xlink" x="0px" y="0px"
	 viewBox="0 0 512 512" style="enable-background:new 0 0 512 512;" xml:space="preserve">
<style type="text/css">
	.st0{fill:#B1B3B4;}
	.st1{fill:#87888A;}
	.st2{fill:#ECEDED;}
	.st3{fill:#C6C7C8;}
</style>
<title>Icon_Weather_Cloudy</title>
<g>
	<g>
		<path class="st0" d="M76.6,322.1c-26.5-0.5-47.6-22.5-47-49s22.5-47.6,49-47c0.4,0-0.6-7.5-0.6-11.5c0-21.2,17.2-38.4,38.4-38.4
			c7.2,0,14.3,2,20.4,5.8c6.6-34.7,40.2-57.5,74.9-50.8c23.4,4.5,42.3,21.5,49.2,44.3c40.3,5.2,68.8,42.1,63.6,82.4
			c-4.7,36.7-36,64.2-73,64.2L76.6,322.1L76.6,322.1z"/>
	</g>
	<g>
		<path class="st1" d="M306.1,205.5l6.3-4.9c-3.9-5-8.4-9.5-13.4-13.4l-4.9,6.3C298.5,197,302.5,201.1,306.1,205.5z"/>
		<path class="st1" d="M318.9,210.4c-1.1-1.9-3.5-2.6-5.4-1.5s-2.6,3.5-1.5,5.4c5.9,10.4,9,22.2,9,34.1c0,38.4-31.2,69.6-69.6,69.6
			H78.5c-24.3,0-44-19.7-44-44s19.7-44,44-44c0,0,0,0,0.1,0c11.5,0,22.8,4.7,31,12.8c0.8,0.8,1.8,1.2,2.8,1.2s2-0.4,2.8-1.2
			c1.6-1.6,1.6-4.1,0-5.7c-8.7-8.7-20.6-14.1-32.8-15c0-0.3,0-0.5-0.1-0.8c-0.2-2.2-0.4-5-0.4-6.8c0-6.4,1.8-12.7,5.2-18.2
			c4.9-7.8,12.5-13.2,21.4-15.3s18.2-0.5,26,4.3l4.9,3.1l1.1-5.7c4.2-22,20.1-39.7,41.5-46.1c31.7-9.6,65.2,8.4,74.8,40l0.8,2.5
			l2.6,0.3c8.7,1.1,17,3.8,24.6,8c1.9,1.1,4.4,0.4,5.4-1.6c1.1-1.9,0.4-4.4-1.6-5.4c-7.8-4.3-16.2-7.2-25-8.6
			c-11.8-34.4-48.9-53.5-84-42.9c-22.5,6.8-39.7,24.6-45.9,47.1c-8.5-3.9-17.9-4.9-27.2-2.7c-11,2.6-20.4,9.3-26.4,18.9
			c-4.2,6.7-6.4,14.5-6.4,22.4c0,2.2,0.2,5,0.5,7.5c0,0.1,0,0.1,0,0.2c-26.7,2.1-47.8,24.6-47.8,51.8c0,28.7,23.3,52,52,52h172.8
			c42.8,0,77.6-34.8,77.6-77.6C328.9,235.1,325.4,222,318.9,210.4z"/>
	</g>
	<g>
		<path class="st2" d="M171.1,382c-33.1-1.4-58.9-29.3-57.5-62.4c1.3-32.1,27.7-57.5,59.9-57.6c0.5,0-0.8-9.4-0.8-14.4
			c0-26.5,21.5-48,48-48c9,0,17.8,2.5,25.4,7.3c8.3-43.4,50.2-71.8,93.6-63.5c29.2,5.6,52.9,26.9,61.5,55.4
			c50.4,6.5,86,52.6,79.5,103c-5.9,45.9-45,80.3-91.3,80.3L171.1,382z"/>
	</g>
	<g>
		<path class="st3" d="M458.8,235.7l6.3-5c-4.9-6.2-10.5-11.7-16.7-16.5l-4.9,6.3C449.2,224.9,454.3,230,458.8,235.7z"/>
		<path class="st3" d="M473.2,242.9c-1.1-1.9-3.5-2.6-5.4-1.5s-2.6,3.5-1.5,5.4c7.4,13.2,11.3,28.1,11.3,43.2
			c0,23.5-9.2,45.6-25.8,62.2c-16.6,16.6-38.7,25.8-62.2,25.8l0,0h-216c-30.9,0-56-25.1-56-56s25.1-56,56-56c0,0,0,0,0.1,0
			c14.7,0,29.1,6,39.5,16.4c0.8,0.8,1.8,1.2,2.8,1.2s2-0.4,2.8-1.2c1.6-1.6,1.6-4.1,0-5.7c-11-11-25.8-17.6-41.3-18.6
			c0-0.6-0.1-1.2-0.2-2c-0.2-2.8-0.5-6.3-0.5-8.6c0-8.2,2.3-16.3,6.7-23.3c6.2-10,16-16.9,27.4-19.6c11.5-2.6,23.2-0.7,33.2,5.6
			l4.9,3.1l1.1-5.7c5.3-27.8,25.5-50.2,52.6-58.4c19.4-5.9,40-3.9,57.9,5.7c17.9,9.6,31,25.5,36.9,45l0.8,2.5l2.6,0.3
			c11,1.4,21.5,4.8,31.1,10.2c1.9,1.1,4.4,0.4,5.4-1.6c1.1-1.9,0.4-4.4-1.6-5.4c-9.8-5.4-20.4-9-31.5-10.7
			c-6.8-20.4-21-37.1-40-47.3c-19.8-10.6-42.5-12.8-64-6.3c-28.2,8.6-49.6,31-56.9,59.3c-10.7-5.2-22.7-6.6-34.4-3.9
			c-13.5,3.1-25,11.3-32.4,23.1c-5.2,8.3-7.9,17.8-7.9,27.5c0,2.6,0.3,6.1,0.6,9.3c0,0.4,0.1,0.8,0.1,1.3
			c-33.4,2.1-59.9,30-59.9,63.9c0,35.3,28.7,64,64,64h216l0,0c25.6,0,49.7-10,67.9-28.1c18.1-18.1,28.1-42.2,28.1-67.9
			C485.6,273.5,481.3,257.2,473.2,242.9z"/>
	</g>
</g>
</svg>
